<svg width="572" height="437" viewBox="0 0 572 437" fill="none" xmlns="http://www.w3.org/2000/svg">
<path d="M456.5 1V233L290 1H227V435H291V202.5L458 435H521V1H456.5Z" stroke="#D4AF37" stroke-width="2"/>
<path d="M227 1H163.5V241C163.5 241 188.5 253 227 253C270.5 253 291 241 291 241V1H227Z" stroke="#D4AF37" stroke-width="2"/>
<path d="M227 1H163.5V241C163.5 241 138.5 253 100 253C56.5 253 36 241 36 241V1H100.5L100 116" stroke="#D4AF37" stroke-width="2"/>
<path d="M456.5 1V233L290 1H227V435H291V202.5L458 435H521V1H456.5Z" fill="#D4AF37" fill-opacity="0.2"/>
<path d="M227 1H163.5V241C163.5 241 188.5 253 227 253C270.5 253 291 241 291 241V1H227Z" fill="#D4AF37" fill-opacity="0.2"/>
<path d="M227 1H163.5V241C163.5 241 138.5 253 100 253C56.5 253 36 241 36 241V1H100.5L100 116" fill="#D4AF37" fill-opacity="0.2"/>
</svg>