<svg xmlns="http://www.w3.org/2000/svg" xmlns:xlink="http://www.w3.org/1999/xlink" viewBox="0 0 375 374.999991" preserveAspectRatio="xMidYMid meet" version="1.0">
  <defs>
    <clipPath id="8e9daf6e3d"><path d="M 16 0 L 349 0 L 349 347 L 16 347 Z M 16 0 " clip-rule="nonzero"/></clipPath>
    <clipPath id="8437fbf919"><path d="M -0.304688 -6.195312 L 381.398438 -0.199219 L 375.402344 381.503906 L -6.300781 375.507812 Z M -0.304688 -6.195312 " clip-rule="nonzero"/></clipPath>
    <clipPath id="118516147b"><path d="M -135.195312 -9.8125 L 505.976562 0.257812 L 497.859375 516.945312 L -143.308594 506.875 Z M -135.195312 -9.8125 " clip-rule="nonzero"/></clipPath>
    <clipPath id="fed57a763d"><path d="M 0 183 L 375 183 L 375 375 L 0 375 Z M 0 183 " clip-rule="nonzero"/></clipPath>
    <clipPath id="bf24fe13bd"><path d="M -0.304688 -6.195312 L 381.398438 -0.199219 L 375.402344 381.503906 L -6.300781 375.507812 Z M -0.304688 -6.195312 " clip-rule="nonzero"/></clipPath>
    <clipPath id="195ba1fea4"><path d="M -135.195312 -9.8125 L 505.976562 0.257812 L 497.859375 516.945312 L -143.308594 506.875 Z M -135.195312 -9.8125 " clip-rule="nonzero"/></clipPath>
  </defs>
  <g clip-path="url(#8e9daf6e3d)">
    <g clip-path="url(#8437fbf919)">
      <g clip-path="url(#118516147b)">
        <path fill="#d2ae6c" d="M 22.027344 -6.980469 C 23.105469 -6.605469 23.105469 -6.605469 23.640625 -6.054688 L 24.210938 -5.347656 C 25.179688 -4.164062 26.171875 -3 27.179688 -1.851562 C 28.125 -0.769531 29.0625 0.316406 29.988281 1.417969 C 30.984375 2.597656 32 3.757812 33.023438 4.914062 C 34.246094 6.296875 35.453125 7.695312 36.644531 9.105469 C 37.378906 9.96875 38.121094 10.824219 38.867188 11.675781 C 40.023438 13 41.167969 14.332031 42.300781 15.675781 C 43.308594 16.859375 44.332031 18.027344 45.355469 19.195312 C 46.027344 19.964844 46.691406 20.742188 47.347656 21.523438 C 48.34375 22.703125 49.359375 23.863281 50.382812 25.019531 C 51.605469 26.40625 52.8125 27.804688 54.003906 29.214844 C 54.738281 30.078125 55.480469 30.933594 56.226562 31.785156 C 57.382812 33.109375 58.527344 34.441406 59.660156 35.785156 C 60.398438 36.648438 61.144531 37.507812 61.894531 38.367188 C 62.847656 39.453125 63.792969 40.550781 64.730469 41.65625 C 66.183594 43.378906 67.671875 45.078125 69.15625 46.773438 C 70.847656 48.707031 72.527344 50.640625 74.183594 52.601562 C 74.921875 53.46875 75.667969 54.328125 76.417969 55.183594 C 77.574219 56.507812 78.71875 57.839844 79.851562 59.183594 C 80.859375 60.367188 81.882812 61.53125 82.90625 62.703125 C 83.578125 63.472656 84.242188 64.25 84.898438 65.03125 C 85.894531 66.210938 86.910156 67.371094 87.933594 68.527344 C 89.15625 69.910156 90.363281 71.308594 91.554688 72.722656 C 92.289062 73.585938 93.03125 74.441406 93.777344 75.292969 C 94.933594 76.613281 96.078125 77.949219 97.210938 79.289062 C 98.21875 80.472656 99.242188 81.640625 100.265625 82.8125 C 100.9375 83.582031 101.601562 84.359375 102.257812 85.140625 C 103.253906 86.320312 104.269531 87.480469 105.292969 88.636719 C 106.515625 90.019531 107.722656 91.417969 108.914062 92.832031 C 109.648438 93.691406 110.390625 94.550781 111.136719 95.402344 C 112.292969 96.722656 113.4375 98.054688 114.566406 99.398438 C 115.550781 100.550781 116.546875 101.6875 117.546875 102.828125 C 118.667969 104.121094 119.769531 105.429688 120.878906 106.734375 L 122.167969 47.605469 C 123.742188 49 125.207031 50.332031 126.65625 51.832031 L 127.21875 52.414062 C 127.835938 53.050781 128.453125 53.691406 129.070312 54.332031 C 129.519531 54.796875 129.96875 55.261719 130.417969 55.726562 C 131.390625 56.730469 132.367188 57.738281 133.339844 58.75 C 134.921875 60.390625 136.507812 62.027344 138.09375 63.667969 C 140.09375 65.738281 142.097656 67.8125 144.097656 69.882812 C 148.648438 74.589844 153.199219 79.296875 157.75 84.003906 L 160.566406 86.910156 L 172.148438 98.886719 C 177.394531 104.304688 182.632812 109.730469 187.875 115.15625 C 193.25 120.722656 198.632812 126.285156 204.015625 131.847656 C 207.339844 135.28125 210.660156 138.714844 213.972656 142.152344 C 216.246094 144.503906 218.515625 146.855469 220.792969 149.199219 C 222.109375 150.554688 223.417969 151.914062 224.730469 153.273438 C 225.925781 154.519531 227.125 155.757812 228.328125 156.996094 C 228.765625 157.445312 229.203125 157.894531 229.632812 158.347656 C 230.222656 158.960938 230.8125 159.570312 231.40625 160.171875 L 232.398438 161.203125 L 233.273438 161.875 L 233.992188 161.921875 C 235.042969 161.367188 235.835938 160.597656 236.675781 159.773438 L 237.265625 159.207031 C 237.917969 158.574219 238.566406 157.941406 239.214844 157.308594 C 239.6875 156.851562 240.15625 156.394531 240.628906 155.941406 C 241.925781 154.683594 243.21875 153.425781 244.511719 152.167969 C 245.90625 150.8125 247.304688 149.457031 248.703125 148.105469 C 251.121094 145.757812 253.542969 143.410156 255.957031 141.0625 C 259.453125 137.664062 262.953125 134.269531 266.453125 130.878906 C 272.128906 125.371094 277.804688 119.863281 283.476562 114.355469 C 288.984375 109 294.5 103.652344 300.015625 98.300781 L 301.046875 97.304688 C 306.371094 92.128906 311.707031 86.953125 317.046875 81.777344 C 320.859375 78.082031 324.671875 74.378906 328.484375 70.679688 C 330.871094 68.359375 333.261719 66.042969 335.652344 63.722656 C 337.035156 62.382812 338.414062 61.039062 339.796875 59.699219 C 341.054688 58.472656 342.316406 57.25 343.582031 56.023438 C 344.039062 55.582031 344.496094 55.136719 344.957031 54.6875 C 345.574219 54.085938 346.195312 53.488281 346.8125 52.886719 L 347.363281 52.351562 C 347.78125 51.949219 348.203125 51.554688 348.632812 51.164062 L 348.992188 51.171875 L 344.359375 346.109375 L 319.117188 345.714844 L 322.425781 112.0625 L 252.101562 180.203125 C 252.3125 181.644531 252.3125 181.644531 253.164062 182.433594 C 253.648438 182.863281 253.648438 182.863281 254.140625 183.296875 L 254.683594 183.785156 C 255.078125 184.136719 255.46875 184.484375 255.867188 184.832031 C 256.964844 185.808594 258.054688 186.796875 259.148438 187.78125 L 259.855469 188.417969 C 264.773438 192.863281 269.566406 197.445312 274.324219 202.058594 L 275.113281 202.820312 C 295.15625 222.273438 295.15625 222.273438 297.761719 230.929688 C 299.140625 236.316406 299.183594 241.6875 298.550781 247.179688 L 298.417969 248.34375 C 297.84375 253.011719 296.90625 257.535156 295.542969 262.03125 C 294.515625 261.546875 293.78125 261.035156 292.988281 260.222656 L 292.339844 259.554688 L 291.636719 258.824219 L 290.875 258.042969 C 290.03125 257.175781 289.191406 256.300781 288.347656 255.429688 L 286.519531 253.546875 C 285.195312 252.179688 283.867188 250.808594 282.542969 249.441406 C 280.574219 247.402344 278.601562 245.367188 276.628906 243.335938 C 273.3125 239.910156 269.996094 236.488281 266.679688 233.0625 C 263.398438 229.671875 260.113281 226.28125 256.828125 222.890625 L 256.210938 222.253906 L 253.101562 219.042969 C 245.753906 211.464844 238.410156 203.882812 231.070312 196.296875 C 223.933594 188.929688 216.800781 181.566406 209.664062 174.199219 L 208.996094 173.511719 L 188.878906 152.742188 L 188.25 152.09375 C 174.4375 137.835938 160.621094 123.574219 146.808594 109.304688 C 146.652344 112.746094 146.523438 116.191406 146.421875 119.636719 C 146.375 121.234375 146.316406 122.835938 146.242188 124.433594 C 146.171875 125.980469 146.121094 127.527344 146.085938 129.078125 C 146.070312 129.664062 146.042969 130.25 146.011719 130.835938 C 145.859375 133.625 145.859375 133.625 146.382812 136.347656 C 147.472656 138.222656 149.054688 139.644531 150.636719 141.101562 C 151.082031 141.605469 151.519531 142.113281 151.941406 142.632812 C 152.851562 143.71875 153.777344 144.789062 154.710938 145.855469 C 155.867188 147.175781 157.011719 148.511719 158.140625 149.851562 C 158.882812 150.71875 159.628906 151.578125 160.378906 152.433594 C 161.332031 153.523438 162.277344 154.621094 163.210938 155.726562 C 164.667969 157.449219 166.15625 159.144531 167.640625 160.84375 C 169.328125 162.773438 171.011719 164.710938 172.667969 166.671875 C 173.40625 167.535156 174.152344 168.398438 174.902344 169.253906 C 176.058594 170.578125 177.203125 171.910156 178.335938 173.253906 C 179.074219 174.117188 179.820312 174.976562 180.570312 175.835938 L 182.164062 177.664062 L 182.757812 178.339844 C 191.328125 188.28125 198.226562 199.457031 202.546875 211.882812 L 202.871094 212.816406 C 205.316406 219.925781 206.824219 227.207031 207.601562 234.683594 L 207.691406 235.5625 C 207.964844 238.640625 207.9375 241.722656 207.890625 244.808594 L 207.878906 245.671875 C 207.640625 259.714844 204.320312 273.003906 198.503906 285.753906 L 198.140625 286.5625 C 194.03125 295.628906 188.269531 303.8125 181.511719 311.09375 L 180.96875 311.679688 C 178.128906 314.738281 175.234375 317.683594 171.988281 320.320312 L 171.429688 320.773438 C 158.226562 331.445312 142.246094 338.675781 125.460938 341.332031 C 89.542969 346.59375 52.859375 341.53125 16.5625 340.960938 Z M 46.589844 59.765625 L 42.5625 316.125 C 94.730469 320.683594 94.730469 320.683594 145.375 307.929688 C 147.964844 306.472656 150.410156 304.855469 152.78125 303.066406 L 153.359375 302.632812 C 164.320312 294.246094 172.21875 283.28125 177.503906 270.605469 C 180.476562 263.183594 182.09375 255.246094 182.515625 247.273438 L 182.574219 246.269531 C 183.011719 235.050781 180.585938 223.761719 175.828125 213.628906 L 175.429688 212.773438 C 171.8125 205.078125 166.835938 198.664062 161.191406 192.375 C 160.257812 191.328125 159.347656 190.261719 158.445312 189.1875 C 157.714844 188.332031 156.976562 187.476562 156.234375 186.632812 C 155.285156 185.550781 154.347656 184.460938 153.421875 183.363281 C 152.425781 182.183594 151.410156 181.023438 150.386719 179.867188 C 149.164062 178.484375 147.957031 177.085938 146.765625 175.671875 C 146.03125 174.8125 145.289062 173.957031 144.542969 173.105469 C 143.386719 171.78125 142.242188 170.449219 141.113281 169.105469 C 140.371094 168.242188 139.625 167.378906 138.875 166.523438 C 137.71875 165.199219 136.574219 163.867188 135.445312 162.523438 C 134.703125 161.660156 133.957031 160.796875 133.207031 159.941406 C 132.253906 158.855469 131.308594 157.757812 130.375 156.652344 C 128.917969 154.929688 127.429688 153.230469 125.945312 151.535156 C 124.253906 149.601562 122.574219 147.667969 120.917969 145.707031 C 120.179688 144.839844 119.433594 143.980469 118.683594 143.125 C 117.527344 141.800781 116.382812 140.46875 115.25 139.125 C 114.242188 137.941406 113.21875 136.777344 112.195312 135.605469 C 111.523438 134.835938 110.859375 134.058594 110.203125 133.277344 C 109.207031 132.097656 108.191406 130.9375 107.167969 129.78125 C 105.945312 128.394531 104.738281 127 103.546875 125.585938 C 102.8125 124.722656 102.070312 123.867188 101.324219 123.015625 C 100.371094 121.929688 99.425781 120.832031 98.492188 119.726562 C 97.035156 118 95.546875 116.304688 94.0625 114.605469 C 92.371094 112.675781 90.691406 110.742188 89.035156 108.78125 C 88.296875 107.914062 87.550781 107.054688 86.800781 106.199219 C 85.644531 104.875 84.5 103.542969 83.367188 102.199219 C 82.359375 101.015625 81.335938 99.847656 80.3125 98.679688 C 79.640625 97.90625 78.976562 97.132812 78.320312 96.351562 C 77.324219 95.171875 76.308594 94.011719 75.285156 92.855469 C 74.0625 91.46875 72.855469 90.070312 71.664062 88.660156 C 70.929688 87.796875 70.1875 86.941406 69.441406 86.089844 C 68.488281 85 67.542969 83.90625 66.605469 82.800781 C 65.152344 81.074219 63.664062 79.378906 62.179688 77.679688 C 60.488281 75.75 58.808594 73.816406 57.152344 71.855469 C 56.414062 70.988281 55.667969 70.128906 54.917969 69.273438 C 53.960938 68.183594 53.019531 67.085938 52.082031 65.980469 C 49.40625 62.808594 49.40625 62.808594 46.589844 59.765625" fill-opacity="1" fill-rule="nonzero"/>
      </g>
    </g>
  </g>
  <g clip-path="url(#fed57a763d)">
    <g clip-path="url(#bf24fe13bd)">
      <g clip-path="url(#195ba1fea4)">
        <path fill="#d2ae6c" d="M 120.039062 183.179688 C 122.039062 185.242188 122.039062 185.242188 122.828125 186.125 L 123.355469 186.710938 L 123.894531 187.320312 L 124.464844 187.957031 C 125.644531 189.28125 126.804688 190.617188 127.941406 191.976562 C 129.1875 193.449219 130.464844 194.894531 131.734375 196.34375 C 133.421875 198.277344 135.105469 200.210938 136.761719 202.171875 C 137.5 203.039062 138.246094 203.898438 138.996094 204.753906 C 140.371094 206.324219 141.734375 207.902344 143.070312 209.507812 L 143.980469 210.476562 C 144.722656 211.402344 144.847656 211.75 145.050781 212.988281 C 145.054688 213.472656 145.050781 213.957031 145.039062 214.441406 L 145.039062 215.253906 C 145.039062 216.152344 145.023438 217.046875 145.007812 217.941406 C 145.003906 218.585938 145 219.230469 145 219.875 C 144.988281 221.621094 144.964844 223.367188 144.941406 225.117188 C 144.925781 226.207031 144.914062 227.300781 144.902344 228.394531 C 144.859375 232.210938 144.808594 236.023438 144.75 239.839844 C 144.695312 243.390625 144.660156 246.941406 144.636719 250.492188 C 144.617188 253.546875 144.582031 256.597656 144.53125 259.652344 C 144.503906 261.472656 144.480469 263.292969 144.472656 265.117188 C 144.46875 266.832031 144.441406 268.542969 144.402344 270.257812 C 144.390625 270.886719 144.382812 271.511719 144.386719 272.140625 C 144.398438 275.992188 144.398438 275.992188 143.800781 277.679688 C 142.773438 279.3125 141.3125 280.445312 139.773438 281.585938 C 139.3125 281.960938 138.847656 282.339844 138.386719 282.71875 C 137.976562 283.015625 137.566406 283.308594 137.148438 283.59375 L 136.457031 284.078125 C 131.515625 287.421875 125.625 289.8125 119.785156 291.007812 L 118.34375 290.984375 Z M 252.285156 398.039062 L 260.941406 398.175781 L 261.996094 400.164062 C 264.519531 404.921875 267.054688 409.675781 269.617188 414.414062 C 270.820312 416.640625 272.019531 418.871094 273.210938 421.105469 C 273.777344 422.164062 274.339844 423.226562 274.90625 424.285156 C 276.734375 428.175781 276.734375 428.175781 279.171875 431.640625 L 279.59375 430.910156 L 286.832031 418.351562 L 288.203125 415.976562 C 290.121094 412.640625 292.042969 409.308594 293.96875 405.976562 C 295.351562 403.578125 296.722656 401.171875 298.085938 398.757812 L 306.738281 398.894531 C 306.625 406.738281 306.507812 414.585938 306.386719 422.429688 C 306.332031 426.070312 306.277344 429.714844 306.226562 433.355469 C 306.179688 436.527344 306.132812 439.703125 306.082031 442.875 C 306.054688 444.558594 306.03125 446.238281 306.007812 447.921875 C 305.984375 449.5 305.960938 451.082031 305.933594 452.660156 C 305.925781 453.242188 305.917969 453.824219 305.910156 454.40625 C 305.898438 455.199219 305.886719 455.988281 305.871094 456.78125 L 305.851562 458.125 L 305.792969 459.109375 L 305.425781 459.464844 L 296.410156 459.320312 L 296.675781 419.65625 L 291.113281 429.304688 C 289.382812 432.285156 287.65625 435.261719 285.921875 438.238281 L 285.261719 439.371094 C 284.617188 440.476562 283.972656 441.578125 283.328125 442.683594 L 282.746094 443.675781 C 281.492188 445.816406 280.203125 447.933594 278.882812 450.03125 C 278.027344 448.902344 277.332031 447.734375 276.652344 446.496094 L 275.96875 445.246094 L 275.238281 443.910156 L 274.476562 442.523438 C 272.777344 439.421875 271.082031 436.316406 269.394531 433.210938 C 267.554688 429.828125 265.699219 426.460938 263.835938 423.089844 L 263.144531 421.835938 C 262.941406 421.46875 262.738281 421.097656 262.527344 420.714844 C 262.234375 420.1875 261.957031 419.648438 261.695312 419.105469 L 261.679688 419.71875 C 261.566406 424.632812 261.449219 429.542969 261.332031 434.457031 C 261.273438 436.832031 261.21875 439.207031 261.160156 441.585938 C 261.109375 443.875 261.054688 446.167969 260.996094 448.457031 C 260.976562 449.332031 260.957031 450.210938 260.9375 451.085938 C 260.910156 452.308594 260.878906 453.53125 260.847656 454.753906 L 260.824219 455.863281 L 260.796875 456.867188 L 260.777344 457.742188 C 260.757812 457.960938 260.738281 458.175781 260.714844 458.402344 L 260.351562 458.753906 C 259.710938 458.78125 259.074219 458.78125 258.433594 458.773438 L 257.257812 458.757812 L 256.023438 458.734375 L 254.785156 458.71875 L 253.609375 458.699219 L 252.523438 458.679688 L 251.695312 458.621094 L 251.339844 458.253906 C 251.320312 457.476562 251.316406 456.699219 251.332031 455.921875 L 251.34375 455.175781 C 251.355469 454.347656 251.371094 453.515625 251.386719 452.683594 L 251.414062 450.90625 C 251.441406 449.289062 251.46875 447.671875 251.496094 446.058594 C 251.523438 444.371094 251.550781 442.683594 251.578125 440.996094 C 251.628906 437.800781 251.683594 434.605469 251.734375 431.410156 C 251.796875 427.769531 251.855469 424.132812 251.914062 420.496094 C 252.035156 413.011719 252.160156 405.523438 252.285156 398.039062 M -13.484375 393.863281 L -5.191406 393.996094 C -2.21875 399.363281 0.699219 404.757812 3.589844 410.175781 C 4.511719 411.898438 5.433594 413.625 6.355469 415.347656 C 6.800781 416.183594 7.246094 417.019531 7.695312 417.851562 C 8.789062 419.90625 9.894531 421.953125 11.015625 423.988281 C 11.285156 424.480469 11.558594 424.972656 11.832031 425.460938 C 12.683594 427.015625 12.683594 427.015625 12.671875 427.816406 L 13.394531 427.828125 L 13.640625 426.976562 C 14.324219 425.226562 15.269531 423.6875 16.234375 422.078125 C 16.90625 420.945312 17.578125 419.8125 18.25 418.679688 C 19.488281 416.570312 20.699219 414.445312 21.910156 412.316406 C 23.839844 408.9375 25.777344 405.566406 27.730469 402.199219 L 28.351562 401.117188 C 28.742188 400.449219 29.140625 399.78125 29.550781 399.121094 C 30.125 398.171875 30.125 398.171875 30.441406 397.105469 C 30.832031 396.109375 30.832031 396.109375 32.3125 394.582031 L 40.605469 394.714844 L 39.65625 455.289062 L 30.640625 455.148438 L 30.90625 415.117188 L 25.34375 424.769531 C 22.914062 428.921875 22.914062 428.921875 21.738281 430.917969 C 20.871094 432.394531 20.011719 433.875 19.152344 435.359375 L 18.453125 436.566406 C 18.011719 437.328125 17.570312 438.089844 17.132812 438.851562 C 16.539062 439.878906 15.9375 440.902344 15.335938 441.921875 L 14.71875 442.976562 L 14.121094 443.96875 L 13.585938 444.859375 L 13.117188 445.496094 L 12.394531 445.484375 L 12.066406 444.878906 C 9.167969 439.550781 6.257812 434.234375 3.328125 428.925781 C 2.4375 427.3125 1.546875 425.695312 0.660156 424.082031 L -2.25 418.792969 L -2.839844 417.722656 C -3.363281 416.785156 -3.898438 415.851562 -4.4375 414.925781 L -5.421875 454.582031 L -14.4375 454.4375 Z M 84.601562 395.40625 L 93.257812 395.542969 C 96.402344 399.015625 96.402344 399.015625 97.253906 400.640625 L 97.828125 401.714844 L 98.417969 402.8125 C 98.84375 403.554688 99.273438 404.289062 99.710938 405.027344 C 100.578125 406.507812 101.429688 407.992188 102.273438 409.488281 C 103.5625 411.761719 104.949219 413.960938 106.386719 416.148438 C 110.863281 422.964844 115.246094 429.855469 119.660156 436.710938 L 120.664062 395.972656 L 130.039062 396.117188 L 129.085938 456.695312 L 121.152344 456.570312 C 118.179688 453.34375 118.179688 453.34375 117.34375 451.800781 L 116.773438 450.78125 L 116.1875 449.730469 C 115.765625 449.019531 115.335938 448.308594 114.90625 447.601562 C 114.015625 446.125 113.136719 444.640625 112.269531 443.152344 C 110.355469 439.886719 108.300781 436.71875 106.253906 433.539062 C 105.644531 432.585938 105.035156 431.632812 104.429688 430.675781 C 101.027344 425.296875 97.539062 419.980469 94.039062 414.667969 L 94.023438 415.308594 C 93.90625 420.449219 93.785156 425.585938 93.664062 430.726562 C 93.601562 433.210938 93.546875 435.695312 93.488281 438.179688 C 93.433594 440.578125 93.378906 442.972656 93.320312 445.367188 C 93.296875 446.285156 93.277344 447.203125 93.257812 448.117188 C 93.226562 449.394531 93.195312 450.675781 93.164062 451.953125 L 93.140625 453.113281 L 93.113281 454.164062 L 93.089844 455.082031 C 93.070312 455.308594 93.050781 455.535156 93.03125 455.765625 L 92.664062 456.121094 L 83.648438 455.980469 Z M -141.503906 391.851562 C -114.0625 392.285156 -114.0625 392.285156 -108.09375 395.636719 C -104.070312 398.183594 -101.074219 401.527344 -98.78125 405.671875 C -95.910156 411.339844 -94.804688 417.582031 -95.050781 423.910156 C -95.53125 430.386719 -96.800781 436.414062 -100.449219 441.90625 C -103.257812 445.808594 -106.679688 448.726562 -111.046875 450.757812 C -121.058594 454.457031 -132.0625 452.589844 -142.457031 452.425781 Z M -131.917969 401.742188 L -132.558594 442.484375 C -122.785156 443.230469 -122.785156 443.230469 -113.503906 440.734375 C -111.144531 439.386719 -109.441406 437.914062 -107.945312 435.636719 C -105.507812 431.320312 -104.71875 426.820312 -104.695312 421.90625 C -104.773438 417.074219 -105.722656 412.78125 -108.222656 408.605469 C -109.824219 406.429688 -111.550781 405.105469 -113.917969 403.828125 C -119.753906 401.394531 -125.558594 401.839844 -131.917969 401.742188 M -45.636719 393.984375 C -40.8125 396.101562 -37.035156 399.503906 -33.839844 403.644531 C -30.539062 408.496094 -28.527344 413.753906 -27.957031 419.605469 C -27.714844 426.828125 -28.394531 433.175781 -31.667969 439.71875 C -34.242188 444.480469 -38.042969 448.734375 -42.640625 451.628906 C -47.261719 454.207031 -52.019531 455.035156 -57.253906 454.960938 C -61.605469 454.832031 -65.496094 453.804688 -69.316406 451.660156 C -70.960938 450.609375 -72.421875 449.421875 -73.855469 448.09375 L -74.753906 447.273438 C -78.507812 443.632812 -81.253906 439.003906 -82.703125 433.972656 C -84.359375 427.707031 -84.589844 421.019531 -83.078125 414.683594 C -81.339844 408.710938 -78.566406 403.714844 -74.128906 399.316406 C -70.328125 395.796875 -66.28125 393.621094 -61.246094 392.460938 C -55.972656 391.402344 -50.597656 391.953125 -45.636719 393.984375 M -65.328125 404.703125 C -68.574219 407.050781 -70.933594 409.753906 -72.679688 413.394531 C -74.566406 418.019531 -74.992188 422.941406 -74.359375 427.878906 C -73.75 431.878906 -72.175781 435.289062 -69.804688 438.578125 C -67.804688 441.007812 -65.257812 442.800781 -62.367188 444.027344 C -59.101562 445.179688 -55.941406 445.304688 -52.519531 444.824219 C -49.132812 444.035156 -46.359375 442.378906 -43.765625 440.09375 C -40.984375 437.269531 -39.203125 433.660156 -38.101562 429.890625 C -37.75 428.449219 -37.515625 427.066406 -37.429688 425.585938 L -37.359375 424.789062 C -37.140625 420.804688 -37.960938 416.542969 -39.546875 412.886719 C -41.160156 409.828125 -43.292969 406.925781 -46.121094 404.894531 C -48.878906 403.207031 -51.550781 402.203125 -54.796875 402.09375 C -58.886719 402.039062 -61.820312 402.460938 -65.328125 404.703125 M 458.558594 401.28125 C 483.214844 401.667969 483.214844 401.667969 486.605469 403.269531 C 489.628906 405.15625 491.898438 407.386719 493.71875 410.464844 C 495.695312 414.203125 496.3125 417.980469 496.203125 422.1875 C 495.875 425.769531 494.847656 429.238281 492.949219 432.308594 C 491.367188 434.523438 489.632812 436.511719 487.199219 437.792969 L 486.480469 437.785156 C 487.949219 441.183594 489.519531 444.503906 491.257812 447.777344 C 492.871094 450.804688 494.445312 453.847656 495.984375 456.914062 L 496.585938 458.09375 L 497.136719 459.199219 L 497.628906 460.175781 C 497.976562 460.957031 498.199219 461.65625 498.355469 462.496094 C 496.898438 462.542969 495.441406 462.574219 493.984375 462.585938 C 493.488281 462.589844 492.992188 462.601562 492.496094 462.621094 C 490.925781 462.671875 489.4375 462.65625 487.898438 462.328125 C 487.125 461.746094 486.886719 461.277344 486.507812 460.390625 L 486.140625 459.417969 C 485.835938 458.808594 485.53125 458.199219 485.222656 457.59375 C 484.871094 456.90625 484.53125 456.214844 484.191406 455.523438 C 483.707031 454.527344 483.210938 453.535156 482.710938 452.546875 C 481.4375 450.023438 480.238281 447.542969 479.3125 444.863281 C 478.300781 442.65625 478.300781 442.65625 476.691406 440.875 C 475.148438 440.445312 473.652344 440.4375 472.054688 440.4375 L 470.78125 440.40625 C 469.746094 440.382812 468.714844 440.371094 467.683594 440.375 L 467.671875 441.179688 C 467.640625 443.679688 467.605469 446.175781 467.570312 448.675781 C 467.550781 449.960938 467.535156 451.246094 467.519531 452.53125 C 467.5 454.007812 467.480469 455.484375 467.457031 456.957031 L 467.441406 458.363281 L 467.421875 459.652344 L 467.40625 460.796875 L 467.347656 461.648438 L 466.980469 462 L 457.605469 461.855469 Z M 468.140625 411.167969 L 467.835938 430.636719 L 473.421875 430.792969 L 475.167969 430.851562 C 477.734375 430.90625 479.929688 430.953125 482.277344 429.785156 C 483.863281 428.53125 485.003906 426.925781 485.957031 425.152344 C 486.730469 423.019531 486.554688 420.542969 486.425781 418.308594 C 486.011719 416.605469 485.222656 415.21875 484.195312 413.808594 C 483.210938 412.796875 482.417969 412.269531 481.117188 411.734375 C 479.636719 411.332031 478.230469 411.285156 476.699219 411.265625 L 475.335938 411.25 L 473.617188 411.230469 Z M 174.035156 396.808594 L 183.410156 396.957031 L 183.328125 425.085938 C 185.902344 421.96875 188.46875 418.855469 190.972656 415.683594 C 191.730469 414.71875 192.496094 413.761719 193.261719 412.800781 C 194.164062 411.664062 195.066406 410.527344 195.96875 409.390625 C 197.796875 407.085938 199.628906 404.789062 201.46875 402.492188 L 202.125 401.675781 L 202.753906 400.890625 L 203.308594 400.199219 L 203.929688 399.445312 L 204.757812 398.296875 L 205.765625 397.308594 C 207 397.082031 207 397.082031 208.390625 397.136719 L 209.136719 397.160156 C 209.914062 397.183594 210.691406 397.222656 211.472656 397.261719 C 212 397.28125 212.53125 397.300781 213.0625 397.316406 C 214.359375 397.363281 215.652344 397.417969 216.945312 397.484375 C 216.097656 398.875 215.179688 400.136719 214.15625 401.40625 L 213.167969 402.644531 L 212.65625 403.277344 C 211.875 404.253906 211.09375 405.234375 210.316406 406.214844 L 209.390625 407.382812 C 208.796875 408.128906 208.203125 408.878906 207.609375 409.625 L 206.730469 410.734375 L 206.28125 411.300781 C 205.144531 412.726562 204 414.152344 202.851562 415.574219 C 201.976562 416.660156 201.105469 417.75 200.234375 418.84375 C 199.710938 419.492188 199.175781 420.136719 198.636719 420.777344 L 197.808594 421.796875 L 197.097656 422.648438 L 196.699219 423.492188 C 197.003906 425.632812 198.425781 427.46875 199.5625 429.265625 C 200.011719 429.984375 200.460938 430.707031 200.910156 431.425781 L 201.613281 432.554688 C 202.730469 434.359375 203.828125 436.183594 204.925781 438.003906 L 206.914062 441.304688 C 207.589844 442.429688 208.273438 443.558594 208.953125 444.683594 C 211.019531 448.101562 213.082031 451.519531 215.121094 454.957031 L 215.617188 455.792969 C 215.992188 456.429688 216.359375 457.066406 216.722656 457.710938 L 216.714844 458.070312 C 213.019531 458.382812 209.183594 458.703125 205.535156 457.894531 C 204.632812 457.351562 204.175781 456.882812 203.582031 456.019531 C 203 454.902344 202.5 453.769531 202.042969 452.597656 C 201.410156 451.097656 200.519531 449.769531 199.644531 448.402344 C 199.292969 447.828125 198.941406 447.25 198.589844 446.671875 L 198.039062 445.757812 C 196.707031 443.558594 195.375 441.355469 194.050781 439.152344 C 192.617188 436.773438 191.171875 434.402344 189.710938 432.039062 C 188.199219 433.441406 186.886719 434.953125 185.582031 436.550781 L 184.980469 437.28125 C 183.941406 438.511719 183.941406 438.511719 183.097656 439.871094 C 183.046875 440.4375 183.011719 441.003906 182.996094 441.574219 L 182.957031 442.644531 L 182.921875 443.804688 L 182.878906 444.988281 C 182.835938 446.242188 182.792969 447.492188 182.753906 448.746094 L 182.667969 451.289062 C 182.59375 453.371094 182.527344 455.449219 182.457031 457.53125 L 173.082031 457.382812 Z M 409.152344 400.503906 L 443.050781 401.035156 L 442.898438 410.769531 L 418.738281 410.390625 L 418.511719 424.8125 L 441.230469 425.171875 L 441.074219 434.90625 L 440.710938 435.261719 C 440.011719 435.28125 439.3125 435.285156 438.617188 435.269531 L 437.257812 435.25 L 435.785156 435.21875 L 434.28125 435.195312 C 432.960938 435.171875 431.640625 435.148438 430.320312 435.121094 C 428.972656 435.097656 427.628906 435.074219 426.28125 435.050781 C 423.636719 435.007812 420.996094 434.957031 418.351562 434.910156 L 418.097656 451.136719 L 442.617188 451.519531 L 442.460938 461.617188 L 408.203125 461.078125 Z M 340.277344 399.421875 L 348.570312 399.550781 C 350.105469 403.25 351.390625 407.011719 352.675781 410.800781 C 355.125 418.03125 357.625 425.242188 360.160156 432.441406 C 362.375 438.734375 364.582031 445.035156 366.757812 451.339844 C 367.015625 452.09375 367.277344 452.84375 367.539062 453.597656 C 367.890625 454.625 368.246094 455.652344 368.601562 456.679688 L 368.917969 457.597656 C 369.628906 459.667969 369.628906 459.667969 369.617188 460.472656 L 359.519531 460.3125 L 358.027344 456.164062 L 357.566406 454.878906 L 357.191406 453.832031 L 356.8125 452.777344 C 356.304688 451.308594 355.847656 449.828125 355.378906 448.347656 L 331.945312 447.617188 L 331.554688 449.414062 C 331.285156 450.207031 331 450.992188 330.707031 451.773438 L 330.199219 453.125 L 329.9375 453.820312 C 329.671875 454.527344 329.40625 455.234375 329.140625 455.941406 C 327.839844 459.40625 327.839844 459.40625 327.425781 459.808594 C 326.675781 459.828125 325.929688 459.824219 325.179688 459.808594 L 323.804688 459.785156 L 322.351562 459.753906 C 321.867188 459.742188 321.382812 459.734375 320.898438 459.722656 C 319.707031 459.703125 318.515625 459.675781 317.328125 459.652344 C 319.460938 453.710938 321.671875 447.796875 323.964844 441.914062 C 324.824219 439.695312 325.6875 437.476562 326.546875 435.257812 L 326.808594 434.574219 C 328.628906 429.871094 330.414062 425.15625 332.191406 420.4375 C 334.835938 413.414062 337.53125 406.40625 340.277344 399.421875 M 344.003906 414.628906 C 342.875 417.652344 341.746094 420.679688 340.617188 423.707031 C 340.09375 425.113281 339.570312 426.515625 339.042969 427.921875 C 338.539062 429.277344 338.03125 430.632812 337.527344 431.988281 C 337.335938 432.507812 337.140625 433.023438 336.949219 433.542969 C 336.675781 434.265625 336.40625 434.988281 336.140625 435.710938 L 335.671875 436.960938 C 335.308594 437.875 335.308594 437.875 335.332031 438.65625 L 352.640625 438.925781 C 351.289062 434.898438 351.289062 434.898438 349.9375 430.867188 C 349.179688 428.617188 348.425781 426.363281 347.679688 424.105469 C 347.335938 423.070312 346.988281 422.03125 346.644531 420.996094 C 346.480469 420.503906 346.316406 420.011719 346.152344 419.515625 C 345.925781 418.828125 345.699219 418.144531 345.46875 417.457031 L 345.078125 416.28125 C 344.765625 415.320312 344.765625 415.320312 344.003906 414.628906 M 382.46875 400.085938 L 392.203125 400.238281 L 391.253906 460.8125 L 381.515625 460.660156 Z M 147.347656 396.390625 L 156.722656 396.539062 L 155.773438 457.113281 L 146.394531 456.964844 Z M 57.914062 394.984375 L 67.292969 395.132812 L 66.339844 455.707031 L 56.964844 455.558594 Z M 274.636719 490.71875 L 277.882812 490.769531 L 278.277344 491.527344 L 280.070312 494.972656 L 280.691406 496.167969 C 281.960938 498.601562 281.960938 498.601562 283.285156 501.007812 C 283.835938 502.042969 283.835938 502.042969 283.824219 502.761719 C 284.832031 501.894531 285.398438 500.953125 286.035156 499.792969 L 286.664062 498.660156 L 287.3125 497.476562 C 287.9375 496.339844 288.566406 495.210938 289.207031 494.082031 C 289.527344 493.519531 289.828125 492.949219 290.117188 492.367188 C 290.4375 491.773438 290.4375 491.773438 291.226562 490.976562 C 292.011719 490.910156 292.011719 490.910156 292.898438 490.953125 L 293.789062 490.988281 L 294.46875 491.027344 C 294.433594 493.890625 294.394531 496.75 294.355469 499.613281 C 294.335938 500.941406 294.316406 502.269531 294.300781 503.597656 C 294.285156 504.878906 294.265625 506.160156 294.246094 507.441406 C 294.238281 507.933594 294.234375 508.421875 294.226562 508.910156 C 294.21875 509.597656 294.210938 510.28125 294.199219 510.964844 L 294.183594 512.144531 L 294.125 513.023438 L 293.757812 513.378906 C 293.105469 513.414062 293.105469 513.414062 292.316406 513.398438 L 291.527344 513.390625 L 290.875 513.332031 L 290.519531 512.964844 C 290.476562 511.980469 290.457031 511 290.453125 510.011719 L 290.441406 509.113281 C 290.433594 508.167969 290.425781 507.21875 290.421875 506.269531 L 290.40625 504.347656 C 290.390625 502.769531 290.378906 501.195312 290.367188 499.621094 L 289.949219 500.347656 C 289.316406 501.4375 288.683594 502.527344 288.050781 503.617188 L 287.390625 504.761719 L 286.746094 505.867188 L 286.160156 506.882812 C 285.53125 507.867188 284.839844 508.738281 284.078125 509.621094 C 282.539062 507.316406 281.183594 504.957031 279.90625 502.5 L 278.113281 499.066406 L 277.53125 513.121094 L 274.285156 513.070312 Z M 234.25 490.082031 L 237.492188 490.132812 L 237.882812 490.886719 C 238.476562 492.03125 239.066406 493.171875 239.660156 494.316406 L 240.273438 495.503906 C 241.382812 497.640625 242.53125 499.730469 243.804688 501.773438 C 244.75 500.621094 245.480469 499.40625 246.21875 498.109375 L 246.585938 497.46875 C 246.96875 496.800781 247.351562 496.128906 247.734375 495.457031 C 248.121094 494.78125 248.503906 494.105469 248.890625 493.429688 C 249.242188 492.820312 249.589844 492.210938 249.933594 491.601562 C 250.46875 490.699219 250.46875 490.699219 250.835938 490.34375 C 251.386719 490.328125 251.933594 490.328125 252.480469 490.347656 L 253.382812 490.371094 L 254.082031 490.394531 C 254.046875 493.253906 254.007812 496.117188 253.964844 498.980469 C 253.945312 500.308594 253.929688 501.636719 253.910156 502.964844 C 253.894531 504.246094 253.878906 505.527344 253.859375 506.808594 C 253.851562 507.296875 253.84375 507.789062 253.839844 508.277344 C 253.832031 508.960938 253.820312 509.644531 253.808594 510.328125 L 253.792969 511.511719 L 253.738281 512.386719 L 253.371094 512.742188 C 252.714844 512.78125 252.714844 512.78125 251.925781 512.765625 L 251.136719 512.757812 L 250.484375 512.699219 L 250.128906 512.332031 C 250.089844 511.34375 250.066406 510.363281 250.0625 509.375 L 250.054688 508.480469 C 250.046875 507.53125 250.039062 506.582031 250.03125 505.636719 L 250.015625 503.710938 C 250 502.136719 249.988281 500.5625 249.980469 498.984375 L 249.519531 499.789062 C 248.957031 500.773438 248.390625 501.761719 247.820312 502.746094 C 247.578125 503.167969 247.332031 503.597656 247.089844 504.023438 C 246.738281 504.636719 246.386719 505.25 246.03125 505.863281 L 245.390625 506.980469 C 244.875 507.785156 244.410156 508.367188 243.691406 508.984375 C 241.585938 505.519531 239.660156 502 237.722656 498.433594 L 237.140625 512.488281 L 233.898438 512.4375 Z M 414.914062 492.921875 L 418.160156 492.972656 L 418.550781 493.722656 L 420.328125 497.132812 L 420.941406 498.308594 C 422.101562 500.539062 423.273438 502.761719 424.464844 504.972656 L 424.832031 504.351562 L 425.914062 502.519531 C 426.324219 501.832031 426.734375 501.140625 427.144531 500.453125 C 428.457031 498.261719 428.457031 498.261719 429.667969 496.015625 L 430.28125 494.851562 C 430.445312 494.523438 430.609375 494.191406 430.777344 493.851562 L 431.503906 493.179688 C 432.285156 493.128906 432.285156 493.128906 433.171875 493.164062 L 434.066406 493.199219 L 434.75 493.230469 C 434.710938 496.09375 434.675781 498.957031 434.632812 501.816406 C 434.613281 503.144531 434.597656 504.472656 434.578125 505.804688 C 434.5625 507.085938 434.542969 508.367188 434.527344 509.644531 C 434.519531 510.136719 434.511719 510.625 434.507812 511.117188 C 434.5 511.800781 434.488281 512.484375 434.476562 513.167969 L 434.460938 514.347656 L 434.402344 515.226562 L 434.039062 515.582031 C 433.382812 515.621094 433.382812 515.621094 432.59375 515.605469 L 431.804688 515.59375 L 431.152344 515.535156 L 430.796875 515.171875 C 430.753906 514.183594 430.734375 513.203125 430.730469 512.214844 L 430.722656 511.320312 C 430.714844 510.371094 430.707031 509.421875 430.699219 508.472656 L 430.683594 506.550781 C 430.667969 504.972656 430.65625 503.398438 430.648438 501.824219 L 430.1875 502.625 C 429.621094 503.613281 429.058594 504.597656 428.488281 505.582031 C 428.246094 506.007812 428 506.433594 427.757812 506.859375 C 427.40625 507.472656 427.050781 508.085938 426.699219 508.699219 L 426.058594 509.816406 C 425.542969 510.621094 425.078125 511.207031 424.359375 511.824219 C 422.964844 509.554688 421.664062 507.242188 420.386719 504.910156 L 418.390625 501.269531 L 417.808594 515.328125 L 414.5625 515.277344 Z M 140.488281 488.609375 C 141.742188 488.4375 142.855469 488.398438 144.09375 488.667969 C 145.152344 489.535156 145.765625 490.609375 146.449219 491.78125 L 147.050781 492.734375 C 147.679688 493.742188 148.289062 494.757812 148.898438 495.773438 C 149.320312 496.460938 149.746094 497.144531 150.171875 497.828125 C 151.214844 499.5 152.230469 501.1875 153.25 502.875 L 153.832031 488.820312 L 157.4375 488.875 L 157.085938 511.230469 L 154.203125 511.183594 C 153.433594 510.503906 153.433594 510.503906 152.839844 509.535156 L 152.136719 508.425781 L 151.769531 507.816406 C 151.355469 507.140625 150.933594 506.476562 150.496094 505.820312 C 149.550781 504.371094 148.613281 502.917969 147.679688 501.457031 L 144.335938 496.242188 L 143.742188 511.019531 L 140.5 510.96875 L 140.144531 510.605469 C 140.121094 509.917969 140.121094 509.230469 140.132812 508.542969 L 140.15625 507.210938 L 140.183594 505.757812 L 140.207031 504.277344 C 140.230469 502.980469 140.253906 501.683594 140.277344 500.382812 C 140.304688 499.058594 140.328125 497.734375 140.347656 496.410156 C 140.394531 493.808594 140.441406 491.210938 140.488281 488.609375 M 69.808594 487.5 C 71.0625 487.328125 72.171875 487.289062 73.414062 487.554688 C 74.46875 488.421875 75.085938 489.5 75.769531 490.667969 L 76.371094 491.625 C 76.996094 492.632812 77.609375 493.648438 78.21875 494.664062 C 78.640625 495.347656 79.066406 496.035156 79.492188 496.71875 C 80.535156 498.390625 81.550781 500.078125 82.570312 501.765625 L 83.152344 487.710938 L 86.757812 487.765625 C 86.71875 490.628906 86.683594 493.488281 86.640625 496.351562 C 86.621094 497.679688 86.605469 499.007812 86.585938 500.335938 C 86.570312 501.617188 86.554688 502.898438 86.535156 504.179688 C 86.527344 504.667969 86.519531 505.160156 86.515625 505.648438 C 86.507812 506.332031 86.496094 507.015625 86.484375 507.699219 L 86.46875 508.882812 L 86.410156 509.761719 L 86.046875 510.113281 C 84.9375 510.367188 84.9375 510.367188 84.238281 510.339844 C 83.519531 510.074219 83.519531 510.074219 82.894531 509.371094 L 82.253906 508.410156 L 81.507812 507.304688 C 81.238281 506.890625 80.96875 506.476562 80.699219 506.0625 L 80.261719 505.398438 C 79.164062 503.722656 78.082031 502.035156 77 500.347656 L 73.65625 495.132812 L 73.0625 509.910156 L 69.816406 509.859375 L 69.464844 509.492188 C 69.441406 508.808594 69.4375 508.121094 69.453125 507.433594 L 69.476562 506.097656 L 69.503906 504.648438 L 69.527344 503.167969 C 69.550781 501.871094 69.574219 500.570312 69.597656 499.273438 C 69.621094 497.949219 69.644531 496.625 69.667969 495.300781 C 69.714844 492.699219 69.757812 490.101562 69.808594 487.5 M 324.761719 491.503906 C 325.863281 491.425781 326.914062 491.402344 328.007812 491.554688 C 328.816406 492.242188 328.816406 492.242188 329.402344 493.21875 L 330.09375 494.328125 L 330.832031 495.566406 C 331.109375 496.007812 331.394531 496.449219 331.675781 496.886719 C 332.582031 498.285156 333.464844 499.691406 334.351562 501.101562 L 337.519531 506.132812 L 338.105469 491.714844 L 341.710938 491.769531 C 341.675781 494.632812 341.636719 497.492188 341.59375 500.355469 C 341.574219 501.683594 341.558594 503.011719 341.539062 504.339844 C 341.523438 505.621094 341.507812 506.902344 341.488281 508.183594 C 341.480469 508.675781 341.472656 509.164062 341.46875 509.652344 C 341.460938 510.339844 341.449219 511.023438 341.4375 511.707031 L 341.421875 512.886719 L 341.367188 513.765625 L 341 514.121094 C 339.890625 514.375 339.890625 514.375 339.191406 514.347656 C 338.476562 514.082031 338.476562 514.082031 337.847656 513.375 L 337.207031 512.414062 L 336.464844 511.3125 C 336.191406 510.898438 335.921875 510.484375 335.652344 510.070312 L 335.214844 509.402344 C 334.121094 507.726562 333.03125 506.042969 331.953125 504.351562 L 330.976562 502.828125 C 330.1875 501.597656 329.398438 500.367188 328.609375 499.140625 L 328.5625 500.457031 C 328.503906 502.0625 328.441406 503.671875 328.378906 505.277344 C 328.351562 505.976562 328.328125 506.671875 328.300781 507.371094 C 328.265625 508.367188 328.226562 509.367188 328.1875 510.367188 L 328.152344 511.316406 C 328.121094 512.0625 328.078125 512.808594 328.023438 513.554688 L 327.65625 513.910156 C 327.003906 513.949219 327.003906 513.949219 326.214844 513.933594 L 325.425781 513.921875 L 324.773438 513.863281 L 324.417969 513.5 C 324.394531 512.8125 324.394531 512.125 324.40625 511.4375 L 324.429688 510.105469 L 324.457031 508.652344 L 324.484375 507.175781 C 324.503906 505.875 324.527344 504.578125 324.550781 503.277344 C 324.578125 501.953125 324.601562 500.628906 324.621094 499.304688 C 324.667969 496.703125 324.714844 494.105469 324.761719 491.503906 M 461.796875 493.65625 L 465.039062 493.707031 C 465.777344 494.253906 465.777344 494.253906 466.25 495.019531 L 466.804688 495.878906 L 467.359375 496.820312 L 467.960938 497.777344 C 468.589844 498.785156 469.210938 499.796875 469.820312 500.816406 C 470.246094 501.5 470.671875 502.183594 471.101562 502.867188 C 472.144531 504.542969 473.167969 506.230469 474.195312 507.917969 L 474.777344 493.859375 L 478.382812 493.917969 L 478.03125 516.273438 L 475.148438 516.226562 C 474.425781 515.640625 474.425781 515.640625 473.914062 514.816406 L 473.316406 513.890625 C 473.117188 513.554688 472.914062 513.21875 472.710938 512.875 L 472.058594 511.847656 C 471.378906 510.761719 470.703125 509.667969 470.039062 508.574219 C 469.578125 507.835938 469.113281 507.097656 468.652344 506.363281 C 467.519531 504.558594 466.402344 502.742188 465.289062 500.925781 L 464.691406 516.0625 L 461.445312 516.011719 Z M 94.332031 487.882812 C 103.707031 488.03125 103.707031 488.03125 107.289062 489.53125 C 108.824219 490.785156 110.046875 492.386719 110.800781 494.230469 C 111.628906 497.117188 111.613281 500.035156 110.988281 502.960938 C 110.445312 504.738281 109.660156 506.171875 108.449219 507.582031 C 106.328125 509.445312 104.796875 509.769531 101.914062 510.363281 L 93.980469 510.238281 Z M 97.878906 491.546875 L 97.648438 506.328125 C 102.648438 506.8125 102.648438 506.8125 105.238281 505.367188 C 106.277344 504.449219 106.988281 503.472656 107.453125 502.15625 C 107.820312 498.335938 107.820312 498.335938 106.984375 494.664062 C 106.425781 493.734375 105.941406 493.308594 105.078125 492.585938 C 102.574219 491.230469 101.046875 491.597656 97.878906 491.546875 M -105.660156 484.5625 C -104.023438 485.148438 -102.667969 486.042969 -101.523438 487.332031 C -100.109375 489.191406 -99.21875 490.84375 -98.726562 493.148438 C -98.542969 495.742188 -98.480469 498.429688 -99.414062 500.890625 C -100.5 503.078125 -102.058594 504.707031 -103.984375 506.183594 C -105.636719 507.042969 -107.109375 507.390625 -108.964844 507.546875 C -111.285156 507.449219 -113.492188 506.472656 -115.441406 505.257812 C -117.121094 503.425781 -118.300781 501.546875 -118.976562 499.140625 C -119.515625 496.664062 -119.542969 494.554688 -118.867188 492.109375 C -118.09375 489.90625 -116.976562 488.019531 -115.21875 486.460938 C -112.261719 484.230469 -109.308594 483.746094 -105.660156 484.5625 M -112.40625 488.792969 C -113.707031 489.773438 -114.554688 491.097656 -115.3125 492.527344 C -115.917969 494.328125 -115.898438 496.183594 -115.617188 498.054688 C -115.296875 499.339844 -114.925781 500.230469 -114.039062 501.230469 C -113.125 502.070312 -112.253906 502.839844 -111.152344 503.410156 C -109.691406 503.613281 -108.292969 503.644531 -106.824219 503.476562 C -105.363281 502.867188 -104.410156 501.960938 -103.402344 500.761719 C -102.425781 499.242188 -102.289062 497.757812 -102.199219 495.976562 C -102.230469 494.179688 -102.351562 492.722656 -103.261719 491.160156 C -104.105469 490.066406 -105.09375 489.125 -106.226562 488.339844 C -108.429688 487.570312 -110.363281 487.714844 -112.40625 488.792969 M -12.773438 486.203125 L -9.527344 486.253906 C -8.773438 486.8125 -8.773438 486.8125 -8.285156 487.597656 L -7.710938 488.480469 L -7.128906 489.445312 L -6.503906 490.425781 C -5.851562 491.460938 -5.207031 492.5 -4.570312 493.542969 C -4.125 494.246094 -3.683594 494.949219 -3.238281 495.648438 C -2.148438 497.367188 -1.085938 499.097656 -0.015625 500.828125 L 0.570312 486.410156 L 3.816406 486.460938 L 3.464844 508.816406 L 0.578125 508.773438 C -0.140625 508.1875 -0.140625 508.1875 -0.652344 507.363281 L -1.25 506.433594 C -1.449219 506.101562 -1.652344 505.765625 -1.859375 505.421875 L -2.507812 504.390625 C -3.191406 503.304688 -3.863281 502.214844 -4.53125 501.117188 C -4.992188 500.378906 -5.453125 499.644531 -5.914062 498.90625 C -7.050781 497.101562 -8.164062 495.285156 -9.277344 493.46875 L -9.878906 508.609375 L -13.125 508.558594 Z M 382.828125 492.054688 C 384.648438 492.714844 386.171875 493.5625 387.46875 495.015625 C 386.957031 496.070312 386.359375 496.957031 385.621094 497.871094 C 384.800781 497.445312 384.011719 497.015625 383.230469 496.527344 C 381.699219 495.863281 380.445312 495.773438 378.796875 495.960938 C 377.359375 496.433594 376.675781 496.945312 375.609375 498.027344 C 374.625 499.347656 374.109375 500.371094 373.878906 502.007812 C 373.804688 504.042969 373.851562 505.75 374.667969 507.636719 C 375.261719 508.691406 375.828125 509.515625 376.816406 510.21875 C 378.234375 510.902344 379.679688 510.945312 381.234375 510.890625 C 382.238281 510.808594 382.238281 510.808594 383.484375 510.550781 L 384.351562 509.75 C 384.671875 508.285156 384.722656 506.941406 384.78125 505.429688 L 379.371094 505.347656 L 379.429688 501.742188 L 388.445312 501.882812 L 388.464844 506.277344 L 388.484375 507.65625 L 388.476562 508.75 L 388.480469 509.867188 C 388.300781 510.894531 388.300781 510.894531 387.597656 511.886719 C 386.171875 513.355469 384.484375 514.347656 382.511719 514.90625 C 380.769531 515.230469 379.140625 515.117188 377.421875 514.691406 C 375.472656 513.980469 373.886719 513.023438 372.464844 511.503906 C 371.15625 509.785156 370.398438 508.039062 369.984375 505.917969 C 369.765625 503.386719 369.765625 500.957031 370.6875 498.558594 C 371.730469 496.441406 372.992188 494.679688 374.871094 493.238281 C 377.476562 491.878906 379.9375 491.671875 382.828125 492.054688 M 23.800781 486.574219 C 24.90625 486.933594 25.621094 487.347656 26.445312 488.171875 C 26.96875 488.789062 27.449219 489.4375 27.925781 490.085938 L 25.367188 492.210938 L 24.363281 491.496094 C 23.082031 490.636719 22.355469 490.378906 20.824219 490.222656 C 19.386719 490.230469 18.292969 490.539062 17.027344 491.210938 C 15.84375 492.089844 15.132812 493.25 14.511719 494.566406 C 13.886719 496.441406 13.871094 498.472656 14.210938 500.410156 C 14.539062 501.523438 14.917969 502.300781 15.707031 503.164062 C 16.53125 503.914062 17.320312 504.566406 18.3125 505.082031 C 20.109375 505.265625 21.816406 505.234375 23.589844 504.894531 L 24.460938 504.097656 C 24.777344 502.632812 24.832031 501.289062 24.886719 499.777344 L 19.480469 499.691406 L 19.535156 496.085938 L 28.550781 496.226562 C 28.605469 497.738281 28.640625 499.25 28.660156 500.761719 L 28.714844 502.054688 C 28.722656 503.300781 28.683594 504.386719 28.402344 505.601562 C 27.28125 507.097656 25.875 507.871094 24.25 508.738281 C 22.269531 509.320312 20.453125 509.621094 18.398438 509.269531 C 16.550781 508.757812 15 508 13.53125 506.761719 C 12 505.144531 10.902344 503.15625 10.304688 501.011719 C 9.808594 498.234375 9.96875 495.492188 10.914062 492.832031 C 11.773438 490.976562 13.050781 489.480469 14.589844 488.140625 C 17.523438 486.113281 20.292969 485.882812 23.800781 486.574219 M -48.113281 485.648438 L -44.144531 485.710938 L -44.28125 494.363281 L -35.265625 494.503906 L -35.128906 485.851562 L -31.523438 485.90625 C -31.5625 488.769531 -31.597656 491.628906 -31.640625 494.492188 C -31.660156 495.820312 -31.675781 497.148438 -31.695312 498.476562 C -31.710938 499.757812 -31.726562 501.039062 -31.746094 502.320312 C -31.753906 502.8125 -31.761719 503.300781 -31.765625 503.789062 C -31.773438 504.476562 -31.785156 505.160156 -31.796875 505.84375 L -31.8125 507.023438 L -31.871094 507.902344 L -32.234375 508.257812 L -35.480469 508.207031 L -35.324219 498.109375 L -44.339844 497.96875 L -44.359375 500.085938 L -44.390625 502.8125 L -44.40625 504.210938 L -44.421875 505.539062 L -44.433594 506.769531 L -44.492188 507.703125 L -44.855469 508.058594 C -45.398438 508.085938 -45.941406 508.089844 -46.480469 508.078125 L -47.371094 508.066406 L -48.101562 508.007812 L -48.457031 507.640625 C -48.476562 506.953125 -48.480469 506.269531 -48.464844 505.582031 L -48.445312 504.246094 L -48.417969 502.792969 L -48.390625 501.316406 C -48.371094 500.019531 -48.347656 498.71875 -48.320312 497.421875 C -48.296875 496.097656 -48.273438 494.773438 -48.253906 493.445312 C -48.207031 490.847656 -48.160156 488.246094 -48.113281 485.648438 M 202.152344 489.578125 L 211.53125 489.726562 C 213.414062 491.023438 214.1875 491.65625 215.441406 493.394531 C 216.035156 495.277344 215.914062 497.21875 215.710938 499.167969 C 215.113281 500.847656 213.878906 502.097656 212.757812 503.449219 L 213.109375 504.132812 C 213.636719 505.15625 214.160156 506.175781 214.683594 507.199219 L 215.238281 508.273438 L 215.765625 509.308594 L 216.253906 510.261719 C 216.605469 511.082031 216.605469 511.082031 216.585938 512.164062 C 215.34375 512.320312 214.214844 512.363281 212.980469 512.109375 C 212.082031 511.308594 211.695312 510.289062 211.222656 509.195312 C 210.855469 508.351562 210.480469 507.511719 210.089844 506.675781 L 209.5625 505.441406 L 208.773438 504.46875 C 207.695312 504.164062 206.652344 504.078125 205.53125 504.058594 L 205.527344 504.746094 C 205.519531 505.773438 205.507812 506.796875 205.496094 507.820312 L 205.488281 508.90625 L 205.476562 509.9375 L 205.46875 510.894531 L 205.414062 511.628906 L 205.046875 511.984375 L 201.800781 511.933594 Z M 205.703125 493.242188 L 205.59375 500.089844 L 208.027344 500.242188 L 209.394531 500.328125 C 209.808594 500.277344 210.21875 500.222656 210.644531 500.171875 C 211.570312 499.421875 211.570312 499.421875 212.113281 498.390625 C 212.410156 497.273438 212.367188 496.28125 212.164062 495.144531 L 211.574219 494.03125 C 210.453125 493.238281 210.453125 493.238281 209.230469 493.1875 C 208.054688 493.164062 206.878906 493.199219 205.703125 493.242188 M 182.679688 489.273438 L 194.941406 489.464844 L 194.882812 493.070312 L 186.230469 492.933594 L 186.152344 497.984375 L 187.875 497.996094 L 190.09375 498.023438 L 191.234375 498.03125 L 192.3125 498.042969 L 193.316406 498.054688 L 194.085938 498.105469 L 194.4375 498.472656 C 194.464844 499.015625 194.46875 499.554688 194.457031 500.097656 L 194.449219 500.988281 L 194.386719 501.71875 L 194.023438 502.074219 C 193.429688 502.09375 192.839844 502.097656 192.25 502.082031 L 191.167969 502.058594 L 190.03125 502.035156 L 188.890625 502.011719 C 187.957031 501.992188 187.023438 501.96875 186.089844 501.949219 L 185.996094 507.71875 L 195.011719 507.859375 L 194.949219 511.824219 L 182.328125 511.628906 Z M 442.320312 493.351562 L 454.582031 493.542969 L 454.527344 497.148438 L 445.871094 497.011719 L 445.792969 502.0625 L 447.515625 502.074219 L 449.738281 502.101562 L 450.875 502.109375 L 451.957031 502.121094 L 452.957031 502.132812 L 453.726562 502.1875 L 454.082031 502.550781 C 454.109375 503.09375 454.109375 503.632812 454.101562 504.175781 L 454.089844 505.066406 L 454.03125 505.796875 L 453.664062 506.152344 C 453.074219 506.171875 452.484375 506.175781 451.890625 506.160156 L 450.8125 506.140625 L 449.671875 506.113281 L 448.53125 506.089844 C 447.597656 506.070312 446.664062 506.050781 445.730469 506.027344 L 445.640625 511.796875 L 454.65625 511.9375 L 454.597656 515.542969 L 454.230469 515.898438 C 453.324219 515.917969 452.421875 515.910156 451.515625 515.890625 L 450.785156 515.878906 C 449.882812 515.863281 448.980469 515.84375 448.078125 515.824219 L 441.972656 515.707031 Z M 395.441406 492.613281 L 407.703125 492.808594 L 407.648438 496.414062 L 398.992188 496.277344 L 398.914062 501.324219 L 400.636719 501.339844 L 402.855469 501.363281 L 403.996094 501.375 L 405.074219 501.386719 L 406.078125 501.394531 L 406.847656 501.449219 L 407.199219 501.816406 C 407.226562 502.355469 407.230469 502.898438 407.222656 503.4375 L 407.210938 504.328125 L 407.148438 505.0625 L 406.785156 505.414062 C 406.195312 505.4375 405.601562 505.4375 405.011719 505.421875 L 403.929688 505.402344 L 402.792969 505.375 L 401.652344 505.351562 C 400.71875 505.332031 399.785156 505.3125 398.851562 505.292969 L 398.757812 511.058594 L 407.773438 511.203125 L 407.71875 514.808594 L 407.351562 515.164062 C 406.441406 515.179688 405.542969 515.175781 404.632812 515.15625 L 403.90625 515.140625 C 403.003906 515.125 402.101562 515.105469 401.199219 515.089844 L 395.089844 514.96875 Z M 46.730469 487.136719 L 50.335938 487.195312 L 50.328125 488.542969 C 50.324219 490.203125 50.328125 491.867188 50.332031 493.527344 C 50.332031 494.242188 50.332031 494.960938 50.328125 495.679688 C 50.324219 496.710938 50.324219 497.746094 50.328125 498.78125 L 50.320312 499.746094 C 50.335938 501.714844 50.601562 503.121094 51.5 504.882812 C 52.078125 505.472656 52.078125 505.472656 52.929688 505.628906 C 54.207031 505.765625 55.394531 505.757812 56.652344 505.503906 C 57.484375 504.792969 57.773438 503.953125 58.152344 502.945312 C 58.574219 501.507812 58.601562 500.085938 58.636719 498.59375 L 58.671875 497.613281 C 58.707031 496.589844 58.734375 495.5625 58.765625 494.539062 C 58.785156 493.839844 58.808594 493.140625 58.835938 492.441406 C 58.890625 490.738281 58.941406 489.035156 58.988281 487.328125 L 62.597656 487.386719 C 62.589844 489.585938 62.574219 491.785156 62.550781 493.988281 C 62.546875 494.734375 62.542969 495.480469 62.539062 496.230469 C 62.535156 497.308594 62.523438 498.386719 62.511719 499.464844 C 62.511719 499.796875 62.511719 500.125 62.511719 500.464844 C 62.480469 502.648438 62.117188 504.484375 61.214844 506.480469 C 60.511719 507.539062 59.703125 508.253906 58.648438 508.964844 C 57.179688 509.640625 55.773438 509.984375 54.152344 509.996094 C 52.445312 509.835938 51.0625 509.449219 49.640625 508.460938 C 48.371094 507.238281 47.367188 506.136719 46.789062 504.449219 C 46.351562 502.730469 46.421875 501.042969 46.46875 499.285156 L 46.488281 498.226562 C 46.507812 497.121094 46.535156 496.015625 46.5625 494.910156 C 46.578125 494.160156 46.59375 493.40625 46.605469 492.652344 C 46.644531 490.8125 46.683594 488.976562 46.730469 487.136719 M -86.699219 485.039062 C -86.148438 485.023438 -85.601562 485.027344 -85.050781 485.042969 L -84.148438 485.066406 L -83.453125 485.09375 C -81.660156 490.300781 -79.863281 495.511719 -78.066406 500.714844 L -76.910156 504.070312 C -76.785156 504.441406 -76.65625 504.8125 -76.523438 505.195312 C -76.296875 505.863281 -76.078125 506.535156 -75.863281 507.210938 L -76.230469 507.566406 C -76.777344 507.582031 -77.328125 507.578125 -77.875 507.5625 L -78.777344 507.539062 L -79.476562 507.515625 C -79.703125 507 -79.925781 506.484375 -80.152344 505.972656 L -80.53125 505.101562 C -80.867188 504.246094 -80.867188 504.246094 -81.207031 502.800781 L -89.859375 502.664062 L -90.253906 504.820312 C -90.578125 505.6875 -90.976562 506.492188 -91.375 507.328125 L -94.984375 507.269531 C -94.421875 504.625 -93.5625 502.175781 -92.585938 499.65625 L -92.109375 498.417969 C -91.78125 497.5625 -91.449219 496.703125 -91.117188 495.847656 C -90.609375 494.53125 -90.105469 493.214844 -89.597656 491.894531 L -88.636719 489.394531 L -88.175781 488.195312 L -87.75 487.097656 L -87.375 486.125 C -87.0625 485.394531 -87.0625 485.394531 -86.699219 485.039062 M -85.347656 490.832031 C -85.777344 491.863281 -86.207031 492.890625 -86.632812 493.921875 L -87.003906 494.800781 L -87.359375 495.660156 L -87.6875 496.445312 C -88.0625 497.484375 -88.0625 497.484375 -88.367188 499.441406 L -82.238281 499.535156 L -84.984375 490.839844 Z M 355.054688 491.980469 L 358.300781 492.03125 C 359.90625 495.886719 361.285156 499.824219 362.675781 503.761719 C 363.082031 504.917969 363.492188 506.070312 363.90625 507.222656 C 364.164062 507.960938 364.425781 508.695312 364.683594 509.433594 L 365.054688 510.472656 L 365.394531 511.441406 L 365.695312 512.292969 C 365.902344 513.070312 365.902344 513.070312 365.882812 514.511719 L 362.277344 514.453125 C 362.042969 513.804688 361.8125 513.15625 361.585938 512.503906 L 361.195312 511.410156 C 360.894531 510.464844 360.894531 510.464844 360.90625 509.746094 L 352.25 509.609375 L 351.113281 513.195312 L 350.375 514.265625 C 349.59375 514.359375 349.59375 514.359375 348.707031 514.308594 L 347.8125 514.265625 L 347.128906 514.214844 C 347.375 511.703125 348.304688 509.480469 349.214844 507.140625 L 349.71875 505.824219 C 350.160156 504.675781 350.601562 503.53125 351.046875 502.382812 C 351.5 501.210938 351.949219 500.039062 352.398438 498.867188 C 353.28125 496.570312 354.167969 494.273438 355.054688 491.980469 M 356.398438 498.132812 L 353.382812 506.378906 L 359.515625 506.476562 C 359.015625 503.589844 358.097656 500.898438 357.121094 498.144531 Z M 308.175781 491.242188 L 311.058594 491.289062 C 312.136719 493.726562 313.066406 496.199219 313.945312 498.710938 L 314.359375 499.882812 C 314.644531 500.695312 314.925781 501.503906 315.210938 502.316406 C 315.648438 503.558594 316.085938 504.800781 316.523438 506.042969 L 317.355469 508.414062 L 317.753906 509.539062 L 318.117188 510.582031 L 318.441406 511.5 C 318.664062 512.328125 318.664062 512.328125 318.640625 513.769531 C 317.539062 513.855469 316.492188 513.886719 315.394531 513.71875 C 314.707031 512.984375 314.707031 512.984375 314.34375 511.898438 L 313.667969 509.003906 L 305.011719 508.867188 L 303.867188 512.816406 L 303.136719 513.523438 C 302.351562 513.582031 302.351562 513.582031 301.464844 513.542969 L 300.574219 513.511719 L 299.890625 513.472656 C 300.136719 511.144531 300.921875 509.117188 301.769531 506.941406 C 301.917969 506.5625 302.0625 506.179688 302.214844 505.789062 C 302.527344 504.984375 302.835938 504.183594 303.148438 503.378906 C 303.628906 502.152344 304.101562 500.925781 304.574219 499.699219 C 304.875 498.917969 305.179688 498.136719 305.484375 497.355469 L 305.910156 496.246094 C 306.582031 494.523438 307.273438 492.859375 308.175781 491.242188 M 309.160156 497.390625 L 306.144531 505.636719 L 312.636719 505.738281 L 309.878906 497.402344 Z M -58.339844 485.375 C -56.46875 486.167969 -55.25 487.265625 -53.933594 488.800781 C -54.414062 489.832031 -54.917969 490.542969 -55.777344 491.296875 C -56.488281 490.933594 -57.1875 490.566406 -57.871094 490.15625 C -59.066406 489.464844 -60.117188 488.957031 -61.507812 488.863281 C -62.867188 488.925781 -63.992188 489.285156 -65.195312 489.917969 C -66.375 490.800781 -67.0625 491.972656 -67.710938 493.273438 C -68.367188 495.152344 -68.339844 497.1875 -68.007812 499.144531 C -67.679688 500.25 -67.296875 501.015625 -66.515625 501.871094 C -65.6875 502.621094 -64.898438 503.277344 -63.90625 503.792969 C -62.320312 503.976562 -60.683594 504.128906 -59.164062 503.570312 C -58.554688 503.226562 -57.972656 502.839844 -57.394531 502.453125 C -56.910156 502.214844 -56.429688 501.976562 -55.941406 501.753906 L -54.164062 503.585938 C -54.511719 504.609375 -54.789062 505.261719 -55.605469 505.988281 C -57.378906 507.105469 -58.972656 508.007812 -61.089844 508.164062 C -63.089844 508.183594 -64.765625 507.808594 -66.570312 506.949219 C -68.234375 506.003906 -69.394531 504.960938 -70.394531 503.328125 C -71.75 500.652344 -72.230469 498.425781 -72.148438 495.425781 C -71.980469 493.398438 -71.5 491.644531 -70.425781 489.90625 C -69.011719 487.984375 -67.476562 486.628906 -65.398438 485.441406 C -63.195312 484.632812 -60.578125 484.75 -58.339844 485.375 M -128.882812 484.015625 C -127.054688 484.527344 -125.722656 485.355469 -124.394531 486.703125 L -123.53125 487.707031 C -123.921875 488.605469 -124.25 489.117188 -125.007812 489.757812 L -125.734375 490.199219 L -126.457031 490.1875 L -126.445312 489.464844 C -126.917969 489.210938 -127.394531 488.964844 -127.875 488.722656 L -128.679688 488.304688 C -129.996094 487.863281 -131.1875 487.75 -132.550781 487.925781 C -133.929688 488.328125 -135.035156 488.882812 -136.039062 489.921875 C -136.871094 491 -137.417969 491.910156 -137.6875 493.257812 C -137.894531 495.292969 -138.03125 497.285156 -137.191406 499.191406 C -136.425781 500.554688 -135.46875 501.402344 -134.222656 502.328125 C -133.058594 502.933594 -131.855469 502.839844 -130.5625 502.851562 C -129.050781 502.71875 -128.234375 502.210938 -126.992188 501.359375 L -125.898438 500.65625 L -123.773438 503.210938 C -124.992188 504.488281 -125.996094 505.507812 -127.542969 506.355469 C -129.535156 506.925781 -131.359375 507.238281 -133.421875 506.882812 C -135.613281 506.277344 -137.308594 505.28125 -138.933594 503.695312 C -140.316406 502.175781 -141.0625 500.519531 -141.554688 498.53125 C -141.992188 495.867188 -141.921875 493.316406 -141.050781 490.746094 C -140.050781 488.421875 -138.492188 486.871094 -136.636719 485.203125 C -134.242188 483.660156 -131.628906 483.710938 -128.882812 484.015625 M 483.792969 494.003906 L 498.21875 494.230469 L 498.160156 497.835938 L 492.75 497.75 L 492.457031 516.5 L 488.851562 516.441406 L 489.144531 497.695312 L 483.734375 497.609375 Z M 162.847656 488.960938 L 177.269531 489.1875 L 177.214844 492.792969 L 171.804688 492.707031 L 171.511719 511.457031 L 167.90625 511.402344 L 168.199219 492.652344 L 162.789062 492.566406 Z M 223.070312 489.90625 L 226.675781 489.964844 C 226.636719 492.824219 226.601562 495.6875 226.558594 498.546875 C 226.539062 499.875 226.523438 501.207031 226.503906 502.535156 C 226.488281 503.816406 226.472656 505.097656 226.453125 506.378906 C 226.445312 506.867188 226.4375 507.355469 226.433594 507.847656 C 226.425781 508.53125 226.414062 509.214844 226.402344 509.898438 L 226.386719 511.082031 L 226.328125 511.957031 L 225.964844 512.3125 L 222.71875 512.261719 Z M 129.671875 488.441406 L 133.277344 488.496094 C 133.238281 491.359375 133.199219 494.21875 133.160156 497.082031 C 133.140625 498.410156 133.121094 499.738281 133.105469 501.066406 C 133.089844 502.347656 133.070312 503.628906 133.054688 504.910156 C 133.046875 505.398438 133.039062 505.890625 133.035156 506.378906 C 133.027344 507.0625 133.015625 507.746094 133.003906 508.429688 L 132.988281 509.613281 L 132.929688 510.492188 L 132.566406 510.84375 L 129.320312 510.792969 Z M -23.949219 486.027344 L -20.34375 486.082031 C -20.382812 488.945312 -20.421875 491.804688 -20.460938 494.667969 C -20.480469 495.996094 -20.5 497.324219 -20.515625 498.652344 C -20.53125 499.933594 -20.550781 501.214844 -20.570312 502.496094 C -20.574219 502.988281 -20.582031 503.476562 -20.589844 503.964844 C -20.597656 504.652344 -20.605469 505.335938 -20.617188 506.019531 L -20.632812 507.199219 L -20.691406 508.078125 L -21.058594 508.433594 L -24.300781 508.382812 Z M -23.949219 486.027344" fill-opacity="1" fill-rule="nonzero"/>
      </g>
    </g>
  </g>
</svg>