<svg xmlns="http://www.w3.org/2000/svg" viewBox="0 0 1200 1000">
  <g fill="#000000">
    <!-- DM Monogram -->
    <path d="M300,50C300.558,50.717,300.581,51.616,301.038,52.124C313.612,66.106,326.271,80.012,338.83,94.009C352.584,109.338,366.252,124.746,379.958,140.119C390.923,152.418,401.899,164.707,412.854,177.015C426.215,192.026,439.554,207.058,452.916,222.07C463.87,234.378,474.844,246.669,485.809,258.968C499.515,274.341,513.222,289.714,526.927,305.087C540.633,320.461,554.348,335.826,568.036,351.216C571.288,354.872,574.446,358.612,578.153,362.896C578.153,307.414,578.153,252.569,578.153,197.947C682.808,302.602,787.355,407.15,892.459,512.254C998.069,406.643,1102.788,301.922,1207.869,196.84C1207.869,469.888,1207.869,742.677,1207.869,1015.733C1184.563,1015.733,1161.172,1015.733,1137.459,1015.733C1137.459,799.942,1137.459,584.349,1137.459,369.471C1073.307,433.625,1008.957,497.977,944.016,562.919C944.569,563.366,946.354,564.56,947.845,566.048C986.992,605.15,1026.124,644.267,1065.176,683.465C1066.653,684.948,1068.189,687.253,1068.2,689.183C1068.378,721.014,1068.317,752.847,1068.298,784.679C1068.297,784.984,1068.14,785.29,1068.237,784.939C929.116,645.819,789.761,506.463,650.405,367.108C649.783,367.573,649.161,368.038,648.539,368.503C648.47,370.068,648.343,371.633,648.342,373.198C648.329,393.863,648.507,414.532,648.196,435.193C648.128,439.692,649.398,443.159,652.174,446.279C658.533,453.429,665.052,460.438,671.405,467.594C683.975,481.751,696.454,495.989,709.018,510.152C715.147,517.062,721.447,523.82,727.558,530.746C747.175,552.979,767.964,574.195,783.739,599.641C797.637,622.058,808.315,645.801,815.153,671.176C818.357,683.068,820.988,695.293,822.098,707.529C823.695,725.134,824.607,742.915,824.074,760.568C823.519,778.968,819.911,797.137,814.877,814.921C806.908,843.075,795.339,869.556,779.008,893.968C770.054,907.354,760.208,919.892,749.262,931.712C724.68,958.257,695.645,978.417,662.752,993.109C642.535,1002.138,621.575,1009.076,599.538,1011.948C585.561,1013.769,571.47,1015.763,557.422,1015.822C473.094,1016.18,388.763,1016,304.433,1016C302.619,1016,300.805,1016,298.333,1016C298.333,694.144,298.333,372.54,298.333,50.469C298.777,50,299.222,50,300,50Z"/>
    
    <!-- DOMINIK MAIER Text -->
    <path d="M0,770h100.4c63.6,0,106.7,48.8,106.7,115c0,66.2-43.1,115-106.7,115H0V770zM100.4,962.5c51.1,0,80.8-40.9,80.8-77.4c0-36.5-29.7-77.4-80.8-77.4H26V962.5H100.4z"/>
    <path d="M231.4,770h26V1000h-26V770z"/>
    <path d="M296.2,770h26.7v210h110.1v20H296.2V770z"/>
    <path d="M465.8,770h26v230h-26V770z"/>
    <path d="M532.3,770h26.7v210h110.1v20H532.3V770z"/>
    <path d="M700.1,770h26v230h-26V770z"/>
    <path d="M766.6,770h24.9L869.2,929c7.3,15.5,15.1,35.1,15.1,35.1s8.2-19.6,15.5-35.1L976.9,770h24.9v230h-25.3V848.6c0-18.9,3.1-47.5,3.1-47.5s-8.7,22.7-15.5,36.9L900,939.4h-32.2l-64.1-101.3c-7.3-14.2-15.5-36.9-15.5-36.9s3.1,28.7,3.1,47.5V1000h-24.9V770z"/>
    <path d="M1052,770h26l99.6,230h-28.2l-27.1-64.5h-113.8l-27.1,64.5h-28.2L1052,770zM1111.3,915.5l-42.6-102.2c-5.3-12.9-11.1-32-11.1-32s-5.8,19.1-11.1,32l-42.6,102.2H1111.3z"/>
    <path d="M1199.8,770h26v230h-26V770z"/>
    <path d="M1306.1,790h-71.3v-20h168.9v20h-71.3v210h-26.2V790z"/>
    
    <!-- COACHING UND INTERIM MANAGEMENT Text -->
    <path d="M108.2,1050.5c0-28.2-20.9-49.3-48.4-49.3s-48.4,21.1-48.4,49.3c0,28.2,20.9,49.3,48.4,49.3S108.2,1078.7,108.2,1050.5zM22.4,1050.5c0-22.6,16.2-40.2,37.4-40.2c21.3,0,37.4,17.6,37.4,40.2c0,22.6-16.2,40.2-37.4,40.2C38.6,1090.7,22.4,1073.1,22.4,1050.5z"/>
    <path d="M126.6,1009.8h25.5v3.9c0,8,0,16-0.6,24h0.2c3.7-11.9,15.1-29.5,36.7-29.5c22.4,0,33.2,12,36.5,29.5h0.2c3.5-11.3,13.4-29.5,37.8-29.5c21.7,0,38,11.9,38,41.4v49h-10.5v-48.2c0-21.1-9.3-33.2-27.8-33.2c-20.4,0-30.3,17.1-30.3,38v43.4h-10.5v-48.2c0-21.1-9.3-33.2-27.8-33.2c-20.9,0-30.8,18.2-30.8,37.6v43.8h-10.5L126.6,1009.8L126.6,1009.8z"/>
    <path d="M336.3,1009.8h10.5v89.8h-10.5V1009.8z"/>
    <path d="M438.3,1098.8c-20,0-45.8-12.1-45.8-46c0-33.9,25.8-46,45.8-46c20,0,45.8,12.1,45.8,46C484.1,1086.7,458.3,1098.8,438.3,1098.8zM438.3,1015.5c-15.4,0-35.3,9.1-35.3,37.3c0,28.2,19.8,37.3,35.3,37.3c15.4,0,35.3-9.1,35.3-37.3C473.5,1024.5,453.7,1015.5,438.3,1015.5z"/>
    <path d="M514.8,1009.8h10.5v15h0.4c5.6-10.4,17.3-17.1,32.1-17.1c25.7,0,40.9,20.2,40.9,45.6c0,26.6-15.8,46.4-42.3,46.4c-15,0-25.3-7.5-30.6-15.8h-0.4v49.5h-10.5L514.8,1009.8L514.8,1009.8zM556.6,1015.5c-22,0-31.9,17.8-31.9,37.3c0,20.6,11.7,37.3,32.5,37.3c19.8,0,31-17.1,31-37.3C588.2,1032.5,577.7,1015.5,556.6,1015.5z"/>
    <path d="M627.5,1009.8h10.5v89.8h-10.5V1009.8z M623.6,988.7c0-4.5,3.7-8,8-8s8,3.4,8,8c0,4.5-3.7,8-8,8S623.6,993.2,623.6,988.7z"/>
    <path d="M675.3,1009.8h10.5v13.4h0.4c6.1-10.6,16.2-15.8,28.9-15.8c25.3,0,35.6,20,35.6,42.5v49.7h-10.5v-48.9c0-18.2-6.9-34.1-26.8-34.1c-17.1,0-28.2,13.2-28.2,35.8v47.3h-10.5v-89.9H675.3z"/>
    <path d="M786.5,1051.6c0,26.8,10.4,38.9,30,38.9c13.4,0,24.4-10,26.4-22.9h10.4c-2.6,20-18.4,31.2-37.1,31.2c-25.3,0-40.2-16.7-40.2-46c0-23.7,14.3-46.4,40.2-46.4c26.4,0,40.2,19.3,39.1,45.1H786.5z M846.3,1042.7c-0.9-18-10.6-35.8-30.2-35.8c-18.7,0-28.6,16.9-29.7,35.8H846.3z"/>
    <path d="M867.9,1009.8h10.5v89.8h-10.5V1009.8z M864,988.7c0-4.5,3.7-8,8-8s8,3.4,8,8c0,4.5-3.7,8-8,8S864,993.2,864,988.7z"/>
    <path d="M913.1,1066.8h10.4c1.1,12.3,10.8,23.2,29.1,23.2c14.5,0,26-7.8,26-21.5c0-10.8-6.7-18-20.7-22.2l-13.4-4.1c-14.3-4.3-24.9-12.5-24.9-26.8c0-17.3,15.8-28.2,34.1-28.2c18.9,0,31.2,9.5,33.4,28h-10.4c-2.2-11.7-10.8-19.3-23.9-19.3c-13,0-23.7,7.4-23.7,19.1c0,10.4,7.8,16,17.6,19.1l15,4.5c17.1,5.2,26.4,13.9,26.4,28.9c0,18.9-15.4,32.1-35.4,32.1C929.4,1099.6,915.1,1084.9,913.1,1066.8z"/>
    
    <!-- UND -->
    <path d="M1064.9,1009.8h10.5v13.4h0.4c6.1-10.6,16.2-15.8,28.9-15.8c25.3,0,35.6,20,35.6,42.5v49.7h-10.5v-48.9c0-18.2-6.9-34.1-26.8-34.1c-17.1,0-28.2,13.2-28.2,35.8v47.3h-10.5v-89.9H1064.9z"/>
    <path d="M1176,1009.8h10.5v13.4h0.4c6.1-10.6,16.2-15.8,28.9-15.8c25.3,0,35.6,20,35.6,42.5v49.7h-10.5v-48.9c0-18.2-6.9-34.1-26.8-34.1c-17.1,0-28.2,13.2-28.2,35.8v47.3h-10.5v-89.9H1176z"/>
    <path d="M1295.1,1009.8h10.5v15h0.4c5.6-10.4,17.3-17.1,32.1-17.1c25.7,0,40.9,20.2,40.9,45.6c0,26.6-15.8,46.4-42.3,46.4c-15,0-25.3-7.5-30.6-15.8h-0.4v49.5h-10.5L1295.1,1009.8L1295.1,1009.8zM1336.9,1015.5c-22,0-31.9,17.8-31.9,37.3c0,20.6,11.7,37.3,32.5,37.3c19.8,0,31-17.1,31-37.3C1368.5,1032.5,1358,1015.5,1336.9,1015.5z"/>
  </g>
</svg>