<svg xmlns="http://www.w3.org/2000/svg" viewBox="0 0 1800 1800" preserveAspectRatio="xMidYMid meet">
  <rect width="1800" height="1800" fill="#1A1A1A" />
  
  <g transform="translate(175, 250) scale(0.8)">
    <path 
      fill="#D2AE6C" 
      d="M1346.536,147.84C1241.455,252.922,1136.736,357.643,1031.126,463.254C926.022,358.15,821.475,253.602,716.82,148.947C716.82,203.569,716.82,258.414,716.82,313.896C713.113,309.612,709.955,305.872,706.703,302.216C693.015,286.826,679.3,271.461,665.594,256.087C651.889,240.714,638.182,225.341,624.476,209.968C613.511,197.669,602.537,185.378,591.583,173.07C578.221,158.058,564.882,143.026,551.521,128.015C540.566,115.707,529.59,103.418,518.625,91.119C504.919,75.746,491.251,60.338,477.497,45.009C464.938,31.012,452.279,17.106,439.705,3.124C439.248,2.616,439.225,1.717,439.000,1.000C437.889,1.000,437.444,1.000,437,1.469C437,323.54,437,645.144,437,967C439.472,967,441.286,967,443.1,967C527.43,967,611.761,967.18,696.089,966.822C710.137,966.763,724.228,964.769,738.205,962.948C760.242,960.076,781.202,953.138,801.419,944.109C834.312,929.417,863.347,909.257,887.929,882.712C898.875,870.892,908.721,858.354,917.675,844.968C934.006,820.556,945.575,794.075,953.544,765.921C958.579,748.137,962.186,729.968,962.741,711.568C963.274,693.915,962.362,676.134,960.765,658.529C959.655,646.293,957.024,634.068,953.82,622.176C946.982,596.801,936.304,573.058,922.406,550.641C906.631,525.195,885.842,503.979,866.225,481.746C860.114,474.82,853.814,468.062,847.685,461.152C835.121,446.989,822.642,432.751,810.072,418.594C803.719,411.438,797.2,404.429,790.841,397.279C788.065,394.159,786.795,390.692,786.863,386.193C787.174,365.532,786.996,344.863,787.009,324.198C787.01,322.633,787.137,321.068,787.206,319.503C787.828,319.038,788.45,318.573,789.072,318.108C928.428,457.463,1067.783,596.819,1206.904,735.939C1206.807,736.29,1206.964,735.984,1206.965,735.679C1206.984,703.847,1207.045,672.014,1206.867,640.183C1206.856,638.253,1205.32,635.948,1203.843,634.465C1164.791,595.267,1125.659,556.15,1086.512,517.048C1085.021,515.56,1083.236,514.366,1082.683,513.919C1147.624,448.977,1211.974,384.625,1276.126,320.471C1276.126,535.349,1276.126,750.942,1276.126,966.733C1299.839,966.733,1323.23,966.733,1346.536,966.733C1346.536,693.677,1346.536,420.888,1346.536,147.84ZM557.5,896C540.532,896,524.563,896,508.298,896C508.298,659.685,508.298,423.687,508.298,187.253C514.828,194.314,521.223,201.047,527.408,207.968C533.978,215.32,540.294,222.899,546.816,230.294C559.777,244.989,572.794,259.634,585.807,274.283C591.498,280.69,597.249,287.043,602.947,293.444C616.308,308.452,629.613,323.509,643.021,338.474C650.293,346.592,657.83,354.474,665.07,362.619C677.093,376.145,688.917,389.847,700.931,403.381C710.238,413.864,719.783,424.137,729.086,434.624C740.985,448.038,752.712,461.603,764.582,475.043C770.805,482.09,777.214,488.972,783.468,495.991C796.614,510.744,809.715,525.537,822.831,540.317C830.701,549.185,838.73,557.918,846.394,566.961C860.957,584.143,872.228,603.446,879.606,624.62C884.543,638.787,888.677,653.549,890.562,668.376C892.42,682.996,891.345,698.044,890.917,712.885C890.423,729.964,885.796,746.269,880.002,762.23C872.064,784.095,860.843,804.09,846.296,822.313C831.898,840.35,814.712,855.172,795.173,867.156C776.669,878.505,756.706,886.425,735.376,891.178C718.368,894.968,701.308,896.149,683.977,896.066C641.819,895.864,599.659,896,557.5,896Z"
    />
  </g>
</svg>